<svg width="40" height="29" viewBox="0 0 40 29" fill="none" xmlns="http://www.w3.org/2000/svg">
<path d="M11.1111 0H6.66667C2.99052 0 0 2.78759 0 6.21429V10.3571C0 13.7838 2.99052 16.5714 6.66667 16.5714H11.1111C11.8246 16.5714 12.4993 16.439 13.1443 16.2444C12.2483 21.1232 7.70978 24.8571 2.22222 24.8571C0.993926 24.8571 0 25.7836 0 26.9286C0 28.0735 0.993926 29 2.22222 29C10.7987 29 17.7778 22.4945 17.7778 14.5V6.21429C17.7778 2.78759 14.7873 0 11.1111 0ZM33.3333 0H28.8889C25.2127 0 22.2222 2.78759 22.2222 6.21429V10.3571C22.2222 13.7838 25.2127 16.5714 28.8889 16.5714H33.3333C34.0468 16.5714 34.7215 16.439 35.3665 16.2444C34.4705 21.1232 29.932 24.8571 24.4444 24.8571C23.2161 24.8571 22.2222 25.7836 22.2222 26.9286C22.2222 28.0735 23.2161 29 24.4444 29C33.0209 29 40 22.4945 40 14.5V6.21429C40 2.78759 37.0095 0 33.3333 0Z" fill="#FC7A1E"/>
</svg>
