<svg width="95" height="95" viewBox="0 0 95 95" fill="none" xmlns="http://www.w3.org/2000/svg">
<path d="M54.452 59.2056L53.9832 75.3361C53.9683 75.8105 53.8086 76.269 53.5255 76.65C53.2424 77.0309 52.8495 77.3161 52.3995 77.4672C51.9496 77.6183 51.4642 77.6281 51.0086 77.4953C50.5529 77.3624 50.1488 77.0933 49.8506 76.7241L39.7399 64.1468C39.5265 63.8813 39.2581 63.6653 38.9531 63.5137C38.6481 63.362 38.3138 63.2784 37.9733 63.2685L21.8428 62.7997C21.3684 62.7848 20.9099 62.6251 20.529 62.342C20.148 62.0589 19.8628 61.666 19.7117 61.2161C19.5606 60.7661 19.5508 60.2807 19.6837 59.8251C19.8165 59.3694 20.0856 58.9653 20.4548 58.6671L33.0321 48.5564C33.2976 48.3431 33.5136 48.0746 33.6653 47.7696C33.8169 47.4646 33.9005 47.1303 33.9104 46.7899L34.3792 30.6593C34.3941 30.1849 34.5539 29.7265 34.837 29.3455C35.1201 28.9646 35.513 28.6794 35.9629 28.5283C36.4128 28.3771 36.8982 28.3673 37.3539 28.5002C37.8095 28.633 38.2136 28.9021 38.5118 29.2713L48.6225 41.8487C48.8359 42.1141 49.1043 42.3301 49.4093 42.4818C49.7143 42.6334 50.0486 42.7171 50.3891 42.7269L66.5196 43.1958C66.994 43.2107 67.4525 43.3704 67.8334 43.6535C68.2144 43.9366 68.4996 44.3295 68.6507 44.7794C68.8018 45.2293 68.8116 45.7147 68.6788 46.1704C68.5459 46.626 68.2768 47.0301 67.9076 47.3284L55.3303 57.439C55.0648 57.6524 54.8488 57.9209 54.6972 58.2259C54.5455 58.5309 54.4619 58.8651 54.452 59.2056V59.2056Z" fill="#0075FD"/>
<path d="M49.9697 11.8108L54.4113 25.0351" stroke="#0075FD" stroke-width="2.25" stroke-linecap="round" stroke-linejoin="round"/>
<path d="M58.8027 16.2023L45.5784 20.6438" stroke="#0075FD" stroke-width="2.25" stroke-linecap="round" stroke-linejoin="round"/>
<path d="M68.376 22.7976L71.337 31.6138" stroke="#0075FD" stroke-width="2.25" stroke-linecap="round" stroke-linejoin="round"/>
<path d="M74.2642 25.7253L65.448 28.6863" stroke="#0075FD" stroke-width="2.25" stroke-linecap="round" stroke-linejoin="round"/>
</svg>
