<svg width="29" height="30" viewBox="0 0 29 30" fill="none" xmlns="http://www.w3.org/2000/svg">
<path d="M17.9779 19.1602L15.3497 26.6368C15.2853 26.8162 15.1694 26.9709 15.0176 27.0802C14.8657 27.1895 14.6851 27.248 14.5001 27.248C14.3151 27.248 14.1346 27.1895 13.9827 27.0802C13.8308 26.9709 13.7149 26.8162 13.6505 26.6368L11.0224 19.1602C10.9765 19.0313 10.9041 18.9143 10.8102 18.8172C10.7163 18.7201 10.6032 18.6452 10.4786 18.5977L3.25129 15.879C3.07785 15.8124 2.92827 15.6925 2.82265 15.5353C2.71702 15.3782 2.6604 15.1914 2.6604 15.0001C2.6604 14.8087 2.71702 14.6219 2.82265 14.4648C2.92827 14.3077 3.07785 14.1877 3.25129 14.1212L10.4786 11.4024C10.6032 11.3549 10.7163 11.28 10.8102 11.1829C10.9041 11.0858 10.9765 10.9688 11.0224 10.8399L13.6505 3.36334C13.7149 3.18392 13.8308 3.02919 13.9827 2.91992C14.1346 2.81064 14.3151 2.75208 14.5001 2.75208C14.6851 2.75208 14.8657 2.81064 15.0176 2.91992C15.1694 3.02919 15.2853 3.18392 15.3497 3.36334L17.9779 10.8399C18.0238 10.9688 18.0961 11.0858 18.19 11.1829C18.2839 11.28 18.397 11.3549 18.5216 11.4024L25.7489 14.1212C25.9224 14.1877 26.072 14.3077 26.1776 14.4648C26.2832 14.6219 26.3398 14.8087 26.3398 15.0001C26.3398 15.1914 26.2832 15.3782 26.1776 15.5353C26.072 15.6925 25.9224 15.8124 25.7489 15.879L18.5216 18.5977C18.397 18.6452 18.2839 18.7201 18.19 18.8172C18.0961 18.9143 18.0238 19.0313 17.9779 19.1602V19.1602Z" stroke="#FC7A1E" stroke-width="1.5" stroke-linecap="round" stroke-linejoin="round"/>
</svg>
