<svg width="44" height="44" viewBox="0 0 44 44" fill="none" xmlns="http://www.w3.org/2000/svg">
<path d="M4.125 10.3125H26.125C27.5837 10.3125 28.9826 10.892 30.0141 11.9234C31.0455 12.9549 31.625 14.3538 31.625 15.8125V32.3125C31.625 32.6772 31.4801 33.0269 31.2223 33.2848C30.9644 33.5426 30.6147 33.6875 30.25 33.6875H8.25C6.79131 33.6875 5.39236 33.108 4.36091 32.0766C3.32946 31.0451 2.75 29.6462 2.75 28.1875V11.6875C2.75 11.3228 2.89487 10.9731 3.15273 10.7152C3.41059 10.4574 3.76033 10.3125 4.125 10.3125V10.3125Z" stroke="#FC7A1E" stroke-width="1.5" stroke-linecap="round" stroke-linejoin="round"/>
<path d="M31.625 19.25L41.25 13.75V30.25L31.625 24.75" stroke="#FC7A1E" stroke-width="1.5" stroke-linecap="round" stroke-linejoin="round"/>
</svg>
