<svg width="44" height="45" viewBox="0 0 44 45" fill="none" xmlns="http://www.w3.org/2000/svg">
<path d="M22 31.4375C25.797 31.4375 28.875 28.3595 28.875 24.5625C28.875 20.7655 25.797 17.6875 22 17.6875C18.203 17.6875 15.125 20.7655 15.125 24.5625C15.125 28.3595 18.203 31.4375 22 31.4375Z" stroke="#0075FD" stroke-width="1.5" stroke-linecap="round" stroke-linejoin="round"/>
<path d="M33.6875 20.4375C35.2889 20.4348 36.8688 20.8064 38.3012 21.5226C39.7336 22.2388 40.9788 23.2798 41.9375 24.5625" stroke="#0075FD" stroke-width="1.5" stroke-linecap="round" stroke-linejoin="round"/>
<path d="M2.0625 24.5625C3.02122 23.2798 4.26642 22.2388 5.69879 21.5226C7.13116 20.8064 8.71106 20.4348 10.3125 20.4375" stroke="#0075FD" stroke-width="1.5" stroke-linecap="round" stroke-linejoin="round"/>
<path d="M12.1001 37.625C13.0056 35.7706 14.4137 34.2078 16.164 33.1147C17.9143 32.0215 19.9365 31.4419 22.0001 31.4419C24.0637 31.4419 26.0859 32.0215 27.8362 33.1147C29.5865 34.2078 30.9946 35.7706 31.9001 37.625" stroke="#0075FD" stroke-width="1.5" stroke-linecap="round" stroke-linejoin="round"/>
<path d="M10.3125 20.4375C9.26857 20.4386 8.24593 20.1425 7.36403 19.584C6.48214 19.0254 5.77741 18.2274 5.33219 17.2832C4.88698 16.339 4.71966 15.2876 4.84979 14.2519C4.97992 13.2161 5.40213 12.2388 6.06707 11.4341C6.73202 10.6294 7.61225 10.0305 8.60491 9.70747C9.59757 9.38443 10.6617 9.35056 11.6728 9.60982C12.684 9.86908 13.6006 10.4108 14.3153 11.1716C15.0301 11.9324 15.5136 12.8809 15.7093 13.9062" stroke="#0075FD" stroke-width="1.5" stroke-linecap="round" stroke-linejoin="round"/>
<path d="M28.2905 13.9062C28.4863 12.8809 28.9698 11.9324 29.6845 11.1716C30.3993 10.4108 31.3158 9.86908 32.327 9.60982C33.3382 9.35056 34.4023 9.38443 35.395 9.70747C36.3876 10.0305 37.2678 10.6294 37.9328 11.4341C38.5977 12.2388 39.0199 13.2161 39.1501 14.2519C39.2802 15.2876 39.1129 16.339 38.6677 17.2832C38.2225 18.2274 37.5177 19.0254 36.6358 19.584C35.7539 20.1425 34.7313 20.4386 33.6874 20.4375" stroke="#0075FD" stroke-width="1.5" stroke-linecap="round" stroke-linejoin="round"/>
</svg>
