<svg width="44" height="32" viewBox="0 0 44 32" fill="none" xmlns="http://www.w3.org/2000/svg">
<path d="M12.2222 0.0498047H7.33333C3.28957 0.0498047 0 3.11002 0 6.87183V11.4199C0 15.1817 3.28957 18.2419 7.33333 18.2419H12.2222C13.0071 18.2419 13.7492 18.0965 14.4587 17.8829C13.4731 23.2388 8.48076 27.3379 2.44444 27.3379C1.09332 27.3379 0 28.355 0 29.6119C0 30.8689 1.09332 31.8859 2.44444 31.8859C11.8785 31.8859 19.5556 24.7442 19.5556 15.9679V6.87183C19.5556 3.11002 16.266 0.0498047 12.2222 0.0498047ZM36.6667 0.0498047H31.7778C27.734 0.0498047 24.4444 3.11002 24.4444 6.87183V11.4199C24.4444 15.1817 27.734 18.2419 31.7778 18.2419H36.6667C37.4515 18.2419 38.1936 18.0965 38.9032 17.8829C37.9176 23.2388 32.9252 27.3379 26.8889 27.3379C25.5378 27.3379 24.4444 28.355 24.4444 29.6119C24.4444 30.8689 25.5378 31.8859 26.8889 31.8859C36.323 31.8859 44 24.7442 44 15.9679V6.87183C44 3.11002 40.7104 0.0498047 36.6667 0.0498047Z" fill="#20B486"/>
<path d="M14.9505 17.9734L15.0987 17.1681L14.3146 17.4041C13.6369 17.6081 12.9448 17.7419 12.2222 17.7419H7.33333C3.53107 17.7419 0.5 14.8721 0.5 11.4199V6.87183C0.5 3.41958 3.53107 0.549805 7.33333 0.549805H12.2222C16.0245 0.549805 19.0556 3.41958 19.0556 6.87183V15.9679C19.0556 24.4346 11.637 31.3859 2.44444 31.3859C1.33481 31.3859 0.5 30.5593 0.5 29.6119C0.5 28.6646 1.33481 27.8379 2.44444 27.8379C8.7031 27.8379 13.9179 23.5847 14.9505 17.9734ZM39.3949 17.9734L39.5431 17.1681L38.759 17.4041C38.0813 17.6081 37.3892 17.7419 36.6667 17.7419H31.7778C27.9755 17.7419 24.9444 14.8721 24.9444 11.4199V6.87183C24.9444 3.41958 27.9755 0.549805 31.7778 0.549805H36.6667C40.4689 0.549805 43.5 3.41958 43.5 6.87183V15.9679C43.5 24.4346 36.0815 31.3859 26.8889 31.3859C25.7793 31.3859 24.9444 30.5593 24.9444 29.6119C24.9444 28.6646 25.7793 27.8379 26.8889 27.8379C33.1475 27.8379 38.3623 23.5847 39.3949 17.9734Z" stroke="black" stroke-opacity="0.1"/>
</svg>
