<svg width="32" height="37" viewBox="0 0 32 37" fill="none" xmlns="http://www.w3.org/2000/svg">
<path d="M31 36.4545H5.09091C4.00595 36.4545 2.96538 36.0236 2.1982 35.2565C1.43102 34.4893 1 33.4485 1 32.3636C1 31.2787 1.43102 30.238 2.1982 29.4708C2.96538 28.7036 4.00595 28.2727 5.09091 28.2727H28.2727C28.996 28.2727 29.6898 27.9853 30.2012 27.4739C30.7125 26.9625 31 26.2688 31 25.5455V3.72727C31 3.00395 30.7125 2.31026 30.2012 1.7988C29.6898 1.28734 28.996 1 28.2727 1H5.09091C4.02457 0.999621 3.00024 1.41562 2.23611 2.15938C1.47195 2.90315 1.02845 3.91586 1 4.98182V32.2545" stroke="#FC7A1E" stroke-linecap="round" stroke-linejoin="round"/>
<path d="M28.2727 28.2727V36.4545" stroke="#FC7A1E" stroke-linecap="round" stroke-linejoin="round"/>
<path d="M18.8675 13.2781H25.1812L18.4729 22.7488H25.5758" stroke="#FC7A1E" stroke-linecap="round" stroke-linejoin="round"/>
<path d="M6.48645 15.9604L9.39378 7.23846C9.54282 6.79133 9.96124 6.48975 10.4326 6.48975C10.9039 6.48975 11.3223 6.79133 11.4714 7.23846L14.3787 15.9604M7.53874 12.8035H13.3264" stroke="#FC7A1E" stroke-linecap="round" stroke-linejoin="round"/>
</svg>
