<svg width="35" height="28" viewBox="0 0 35 28" fill="none" xmlns="http://www.w3.org/2000/svg">
<path d="M34.4286 7.57143V24.2857C34.4286 25.1381 34.0899 25.9559 33.4872 26.5586C32.8844 27.1613 32.0667 27.5 31.2143 27.5M31.2143 27.5C30.3619 27.5 29.5441 27.1613 28.9414 26.5586C28.3387 25.9559 28 25.1381 28 24.2857V1.78571C28 1.44472 27.8645 1.11768 27.6235 0.876586C27.3823 0.635463 27.0553 0.5 26.7143 0.5H2.28571C1.94472 0.5 1.6177 0.635463 1.37658 0.876586C1.13546 1.11768 1 1.44472 1 1.78571V24.9286C1 25.6105 1.27092 26.2647 1.75315 26.7468C2.23539 27.229 2.88943 27.5 3.57143 27.5H31.2143Z" stroke="#FC7A1E" stroke-linecap="round" stroke-linejoin="round"/>
<path d="M20.2857 6.92847H8.71423V13.357H20.2857V6.92847Z" stroke="#FC7A1E" stroke-linecap="round" stroke-linejoin="round"/>
<path d="M8.71423 21.0715H20.2857" stroke="#FC7A1E" stroke-linecap="round" stroke-linejoin="round"/>
</svg>
