<svg width="35" height="35" viewBox="0 0 35 35" fill="none" xmlns="http://www.w3.org/2000/svg">
<g clip-path="url(#clip0_1202_784)">
<path d="M17.5 33.75V20.625C17.5 19.7962 17.8292 19.0013 18.4153 18.4153C19.0013 17.8292 19.7962 17.5 20.625 17.5C21.4538 17.5 22.2486 17.8292 22.8347 18.4153C23.4207 19.0013 23.75 19.7962 23.75 20.625V27.5H28.75C30.076 27.5 31.3477 28.0268 32.2855 28.9645C33.2232 29.9023 33.75 31.174 33.75 32.5V33.75" stroke="#FC7A1E" stroke-linecap="round" stroke-linejoin="round"/>
<path d="M15.6435 7.73785C12.5272 4.30862 8.34555 2.03054 3.77443 1.27188C3.4634 1.22783 3.14655 1.25046 2.84495 1.33827C2.54333 1.42608 2.26385 1.57706 2.02507 1.78118C1.78201 1.98908 1.58687 2.24717 1.45308 2.5377C1.31929 2.8282 1.25002 3.14427 1.25004 3.4641V21.2898C1.24672 21.8373 1.44629 22.3665 1.81024 22.7754C2.1742 23.1844 2.67673 23.444 3.22083 23.5042C6.7911 23.9884 10.1485 25.4012 12.9707 27.5732" stroke="#FC7A1E" stroke-linecap="round" stroke-linejoin="round"/>
<path d="M15.6445 14.646V7.73804" stroke="#FC7A1E" stroke-linecap="round" stroke-linejoin="round"/>
<path d="M28.066 23.5042C28.61 23.444 29.1125 23.1844 29.4765 22.7754C29.8405 22.3665 30.04 21.8373 30.0368 21.2898V3.4641C30.0368 3.14427 29.9675 2.8282 29.8338 2.5377C29.7 2.24717 29.5048 1.98908 29.2618 1.78118C29.023 1.57706 28.7435 1.42608 28.4418 1.33827C28.1403 1.25046 27.8235 1.22783 27.5123 1.27188C22.9413 2.03054 18.7596 4.30862 15.6433 7.73785" stroke="#FC7A1E" stroke-linecap="round" stroke-linejoin="round"/>
</g>
<defs>
<clipPath id="clip0_1202_784">
<rect width="35" height="35" fill="white"/>
</clipPath>
</defs>
</svg>
