<svg width="26" height="32" viewBox="0 0 26 32" fill="none" xmlns="http://www.w3.org/2000/svg">
<path d="M2.68991 25.7984C2.98785 24.9316 3.82426 24.3472 4.76638 24.3472H21.3103C22.2524 24.3472 23.0887 24.9316 23.3867 25.7984L25.0765 30.7145H1L2.68991 25.7984Z" stroke="#FC7A1E" stroke-linecap="round" stroke-linejoin="round"/>
<path d="M13.0383 11.6103C16.0598 11.6103 18.5092 9.23509 18.5092 6.30514C18.5092 3.37519 16.0598 1 13.0383 1C10.0168 1 7.56738 3.37519 7.56738 6.30514C7.56738 9.23509 10.0168 11.6103 13.0383 11.6103Z" stroke="#FC7A1E" stroke-linecap="round" stroke-linejoin="round"/>
<path d="M5.37769 24.3469C7.72483 22.0709 9.28658 14.9204 9.75525 11.6121" stroke="#FC7A1E" stroke-linecap="round" stroke-linejoin="round"/>
<path d="M20.6992 24.3469C18.3521 22.071 16.7902 14.9206 16.3215 11.6121" stroke="#FC7A1E" stroke-linecap="round" stroke-linejoin="round"/>
<path d="M6.47192 11.6121H19.6047" stroke="#FC7A1E" stroke-linecap="round" stroke-linejoin="round"/>
</svg>
