<svg width="34" height="34" viewBox="0 0 34 34" fill="none" xmlns="http://www.w3.org/2000/svg">
<path d="M33.4996 21.0001L21.7247 32.7751L16.3997 33.5001L17.1497 28.1751L28.8996 16.4001L33.4996 21.0001Z" stroke="#FC7A1E" stroke-linecap="round" stroke-linejoin="round"/>
<path d="M10.4531 33.5H4.25C3.38805 33.5 2.5614 33.1575 1.9519 32.548C1.34241 31.9385 1 31.112 1 30.25V4.25C1 3.38805 1.34241 2.5614 1.9519 1.9519C2.5614 1.34241 3.38805 1 4.25 1H30.25C31.112 1 31.9385 1.34241 32.548 1.9519C33.1575 2.5614 33.5 3.38805 33.5 4.25V11.625" stroke="#FC7A1E" stroke-linecap="round" stroke-linejoin="round"/>
<path d="M22.2842 11.7373C24.0101 11.7373 25.4093 10.3382 25.4093 8.6123C25.4093 6.88643 24.0101 5.4873 22.2842 5.4873C20.5583 5.4873 19.1592 6.88643 19.1592 8.6123C19.1592 10.3382 20.5583 11.7373 22.2842 11.7373Z" stroke="#FC7A1E" stroke-linecap="round" stroke-linejoin="round"/>
<path d="M1 17.6588C2.48557 17.3902 4.01578 17.25 5.57875 17.25C9.78335 17.25 13.7509 18.2648 17.25 20.0627" stroke="#FC7A1E" stroke-linecap="round" stroke-linejoin="round"/>
</svg>
