<svg width="44" height="44" viewBox="0 0 44 44" fill="none" xmlns="http://www.w3.org/2000/svg">
<path d="M15.125 27.5C20.061 27.5 24.0625 23.4985 24.0625 18.5625C24.0625 13.6265 20.061 9.625 15.125 9.625C10.189 9.625 6.1875 13.6265 6.1875 18.5625C6.1875 23.4985 10.189 27.5 15.125 27.5Z" stroke="white" stroke-width="3" stroke-miterlimit="10"/>
<path d="M26.7095 9.95156C27.4995 9.73728 28.3143 9.62749 29.1329 9.625C31.5033 9.625 33.7766 10.5666 35.4527 12.2427C37.1288 13.9188 38.0704 16.1921 38.0704 18.5625C38.0704 20.9329 37.1288 23.2062 35.4527 24.8823C33.7766 26.5584 31.5033 27.5 29.1329 27.5" stroke="white" stroke-width="3" stroke-linecap="round" stroke-linejoin="round"/>
<path d="M2.75 33.9281C4.14553 31.9422 5.9985 30.3214 8.15239 29.2025C10.3063 28.0835 12.6978 27.4994 15.125 27.4994C17.5522 27.4994 19.9437 28.0835 22.0976 29.2025C24.2515 30.3214 26.1045 31.9422 27.5 33.9281" stroke="white" stroke-width="3" stroke-linecap="round" stroke-linejoin="round"/>
<path d="M29.1328 27.5C31.5602 27.4985 33.9522 28.0819 36.1063 29.2009C38.2605 30.3198 40.1132 31.9413 41.5078 33.9281" stroke="white" stroke-width="3" stroke-linecap="round" stroke-linejoin="round"/>
</svg>
